<svg xmlns="http://www.w3.org/2000/svg" xmlns:xlink="http://www.w3.org/1999/xlink" id="body_2" preserveAspectRatio="xMinYMin meet" viewBox="0 0 793 1076"><defs><clipPath id="1"><path id="" clip-rule="evenodd" transform="matrix(1 0 0 1 0 0)" d="M0 807L0 -0.8740234L0 -0.8740234L595.276 -0.8740234L595.276 -0.8740234L595.276 807L595.276 807L0 807z" /></clipPath><clipPath id="2"><path id="" clip-rule="evenodd" transform="matrix(1 0 0 1 0 0)" d="M0 -0.8740234L595.276 -0.8740234L595.276 -0.8740234L595.276 807L595.276 807L0 807z" /></clipPath><clipPath id="3"><path id="" clip-rule="evenodd" transform="matrix(1 0 0 1 0 0)" d="M-604.276 -7.875L9 -7.875L9 -7.875L9 808.1406L9 808.1406L-604.276 808.1406z" /></clipPath><mask id="m1"><clipPath id="4"><path id="" clip-rule="evenodd" transform="matrix(1 0 0 1 0 0)" d="M-32768 -31960L32767 -31960L32767 -31960L32767 33575L32767 33575L-32768 33575z" /></clipPath><linearGradient gradientUnits="userSpaceOnUse" transform="matrix(1 0 0 1 0 0)" id="820" x1="-280.6498" y1="-103.7461" x2="-280.6498" y2="744.2101"><stop stop-color="#FFFFFF" offset="0%" /><stop stop-color="#FCFCFC" offset="1%" /><stop stop-color="#FAFAFA" offset="2%" /><stop stop-color="#F7F7F7" offset="3%" /><stop stop-color="#F5F5F5" offset="4%" /><stop stop-color="#F2F2F2" offset="5%" /><stop stop-color="#F0F0F0" offset="6%" /><stop stop-color="#EDEDED" offset="7%" /><stop stop-color="#EBEBEB" offset="8%" /><stop stop-color="#E8E8E8" offset="9%" /><stop stop-color="#E6E6E6" offset="10%" /><stop stop-color="#E3E3E3" offset="11%" /><stop stop-color="#E0E0E0" offset="12%" /><stop stop-color="#DEDEDE" offset="13%" /><stop stop-color="#DBDBDB" offset="14%" /><stop stop-color="#D9D9D9" offset="15%" /><stop stop-color="#D6D6D6" offset="16%" /><stop stop-color="#D4D4D4" offset="17%" /><stop stop-color="#D1D1D1" offset="18%" /><stop stop-color="#CFCFCF" offset="19%" /><stop stop-color="#CCCCCC" offset="20%" /><stop stop-color="#C9C9C9" offset="21%" /><stop stop-color="#C7C7C7" offset="22%" /><stop stop-color="#C4C4C4" offset="23%" /><stop stop-color="#C2C2C2" offset="24%" /><stop stop-color="#BFBFBF" offset="25%" /><stop stop-color="#BDBDBD" offset="26%" /><stop stop-color="#BABABA" offset="27%" /><stop stop-color="#B8B8B8" offset="28%" /><stop stop-color="#B5B5B5" offset="29%" /><stop stop-color="#B3B3B3" offset="30%" /><stop stop-color="#B0B0B0" offset="31%" /><stop stop-color="#ADADAD" offset="32%" /><stop stop-color="#ABABAB" offset="33%" /><stop stop-color="#A8A8A8" offset="34%" /><stop stop-color="#A6A6A6" offset="35%" /><stop stop-color="#A3A3A3" offset="36%" /><stop stop-color="#A1A1A1" offset="37%" /><stop stop-color="#9E9E9E" offset="38%" /><stop stop-color="#9C9C9C" offset="39%" /><stop stop-color="#999999" offset="40%" /><stop stop-color="#969696" offset="41%" /><stop stop-color="#949494" offset="42%" /><stop stop-color="#919191" offset="43%" /><stop stop-color="#8F8F8F" offset="44%" /><stop stop-color="#8C8C8C" offset="45%" /><stop stop-color="#8A8A8A" offset="46%" /><stop stop-color="#878787" offset="47%" /><stop stop-color="#858585" offset="48%" /><stop stop-color="#828282" offset="49%" /><stop stop-color="#808080" offset="50%" /><stop stop-color="#7D7D7D" offset="51%" /><stop stop-color="#7A7A7A" offset="52%" /><stop stop-color="#787878" offset="53%" /><stop stop-color="#757575" offset="54%" /><stop stop-color="#737373" offset="55%" /><stop stop-color="#707070" offset="56%" /><stop stop-color="#6E6E6E" offset="57%" /><stop stop-color="#6B6B6B" offset="58%" /><stop stop-color="#696969" offset="59%" /><stop stop-color="#666666" offset="60%" /><stop stop-color="#636363" offset="61%" /><stop stop-color="#616161" offset="62%" /><stop stop-color="#5E5E5E" offset="63%" /><stop stop-color="#5C5C5C" offset="64%" /><stop stop-color="#595959" offset="65%" /><stop stop-color="#575757" offset="66%" /><stop stop-color="#545454" offset="67%" /><stop stop-color="#525252" offset="68%" /><stop stop-color="#4F4F4F" offset="69%" /><stop stop-color="#4D4D4D" offset="70%" /><stop stop-color="#4A4A4A" offset="71%" /><stop stop-color="#474747" offset="72%" /><stop stop-color="#454545" offset="73%" /><stop stop-color="#424242" offset="74%" /><stop stop-color="#404040" offset="75%" /><stop stop-color="#3D3D3D" offset="76%" /><stop stop-color="#3B3B3B" offset="77%" /><stop stop-color="#383838" offset="78%" /><stop stop-color="#363636" offset="79%" /><stop stop-color="#333333" offset="80%" /><stop stop-color="#303030" offset="81%" /><stop stop-color="#2E2E2E" offset="82%" /><stop stop-color="#2B2B2B" offset="83%" /><stop stop-color="#292929" offset="84%" /><stop stop-color="#262626" offset="85%" /><stop stop-color="#242424" offset="86%" /><stop stop-color="#212121" offset="87%" /><stop stop-color="#1F1F1F" offset="88%" /><stop stop-color="#1C1C1C" offset="89%" /><stop stop-color="#1A1A1A" offset="90%" /><stop stop-color="#171717" offset="91%" /><stop stop-color="#141414" offset="92%" /><stop stop-color="#121212" offset="93%" /><stop stop-color="#0F0F0F" offset="94%" /><stop stop-color="#0D0D0D" offset="95%" /><stop stop-color="#0A0A0A" offset="96%" /><stop stop-color="#080808" offset="97%" /><stop stop-color="#050505" offset="98%" /><stop stop-color="#030303" offset="99%" /><stop stop-color="#000000" offset="100%" /></linearGradient><g><g><g clip-path="url(#4)"><g><path id="1" transform="matrix(1 0 0 -1 0 807)" d="M0 -103.7461L595 -103.7461L595 -103.7461L595 744.2101L595 744.2101L0 744.2101" stroke="none" fill="url(#820)" /><path id="3" transform="matrix(1 0 0 -1 0 807)" d="M0 744.2101L595 744.2101L595 744.2101L595 807L595 807L0 807" stroke="none" fill="#000000" fill-rule="evenodd" fill-opacity="0.1490196" /></g></g></g></g></mask><clipPath id="5"><path id="" clip-rule="evenodd" transform="matrix(1 0 0 1 0 0)" d="M-604.276 -7.875L9 -7.875L9 -7.875L9 808.1406L9 808.1406L-604.276 808.1406z" /></clipPath><clipPath id="6"><path id="" clip-rule="evenodd" transform="matrix(1 0 0 1 0 0)" d="M-9 -7.875L604.488 -7.875L604.488 -7.875L604.488 808.1406L604.488 808.1406L-9 808.1406z" /></clipPath><mask id="m2"><clipPath id="7"><path id="" clip-rule="evenodd" transform="matrix(1 0 0 1 0 0)" d="M-32768 -31960L32767 -31960L32767 -31960L32767 33575L32767 33575L-32768 33575z" /></clipPath><linearGradient gradientUnits="userSpaceOnUse" transform="matrix(1 0 0 1 0 0)" id="6217" x1="314.7381" y1="-103.7461" x2="314.7381" y2="744.2101"><stop stop-color="#FFFFFF" offset="0%" /><stop stop-color="#FCFCFC" offset="1%" /><stop stop-color="#FAFAFA" offset="2%" /><stop stop-color="#F7F7F7" offset="3%" /><stop stop-color="#F5F5F5" offset="4%" /><stop stop-color="#F2F2F2" offset="5%" /><stop stop-color="#F0F0F0" offset="6%" /><stop stop-color="#EDEDED" offset="7%" /><stop stop-color="#EBEBEB" offset="8%" /><stop stop-color="#E8E8E8" offset="9%" /><stop stop-color="#E6E6E6" offset="10%" /><stop stop-color="#E3E3E3" offset="11%" /><stop stop-color="#E0E0E0" offset="12%" /><stop stop-color="#DEDEDE" offset="13%" /><stop stop-color="#DBDBDB" offset="14%" /><stop stop-color="#D9D9D9" offset="15%" /><stop stop-color="#D6D6D6" offset="16%" /><stop stop-color="#D4D4D4" offset="17%" /><stop stop-color="#D1D1D1" offset="18%" /><stop stop-color="#CFCFCF" offset="19%" /><stop stop-color="#CCCCCC" offset="20%" /><stop stop-color="#C9C9C9" offset="21%" /><stop stop-color="#C7C7C7" offset="22%" /><stop stop-color="#C4C4C4" offset="23%" /><stop stop-color="#C2C2C2" offset="24%" /><stop stop-color="#BFBFBF" offset="25%" /><stop stop-color="#BDBDBD" offset="26%" /><stop stop-color="#BABABA" offset="27%" /><stop stop-color="#B8B8B8" offset="28%" /><stop stop-color="#B5B5B5" offset="29%" /><stop stop-color="#B3B3B3" offset="30%" /><stop stop-color="#B0B0B0" offset="31%" /><stop stop-color="#ADADAD" offset="32%" /><stop stop-color="#ABABAB" offset="33%" /><stop stop-color="#A8A8A8" offset="34%" /><stop stop-color="#A6A6A6" offset="35%" /><stop stop-color="#A3A3A3" offset="36%" /><stop stop-color="#A1A1A1" offset="37%" /><stop stop-color="#9E9E9E" offset="38%" /><stop stop-color="#9C9C9C" offset="39%" /><stop stop-color="#999999" offset="40%" /><stop stop-color="#969696" offset="41%" /><stop stop-color="#949494" offset="42%" /><stop stop-color="#919191" offset="43%" /><stop stop-color="#8F8F8F" offset="44%" /><stop stop-color="#8C8C8C" offset="45%" /><stop stop-color="#8A8A8A" offset="46%" /><stop stop-color="#878787" offset="47%" /><stop stop-color="#858585" offset="48%" /><stop stop-color="#828282" offset="49%" /><stop stop-color="#808080" offset="50%" /><stop stop-color="#7D7D7D" offset="51%" /><stop stop-color="#7A7A7A" offset="52%" /><stop stop-color="#787878" offset="53%" /><stop stop-color="#757575" offset="54%" /><stop stop-color="#737373" offset="55%" /><stop stop-color="#707070" offset="56%" /><stop stop-color="#6E6E6E" offset="57%" /><stop stop-color="#6B6B6B" offset="58%" /><stop stop-color="#696969" offset="59%" /><stop stop-color="#666666" offset="60%" /><stop stop-color="#636363" offset="61%" /><stop stop-color="#616161" offset="62%" /><stop stop-color="#5E5E5E" offset="63%" /><stop stop-color="#5C5C5C" offset="64%" /><stop stop-color="#595959" offset="65%" /><stop stop-color="#575757" offset="66%" /><stop stop-color="#545454" offset="67%" /><stop stop-color="#525252" offset="68%" /><stop stop-color="#4F4F4F" offset="69%" /><stop stop-color="#4D4D4D" offset="70%" /><stop stop-color="#4A4A4A" offset="71%" /><stop stop-color="#474747" offset="72%" /><stop stop-color="#454545" offset="73%" /><stop stop-color="#424242" offset="74%" /><stop stop-color="#404040" offset="75%" /><stop stop-color="#3D3D3D" offset="76%" /><stop stop-color="#3B3B3B" offset="77%" /><stop stop-color="#383838" offset="78%" /><stop stop-color="#363636" offset="79%" /><stop stop-color="#333333" offset="80%" /><stop stop-color="#303030" offset="81%" /><stop stop-color="#2E2E2E" offset="82%" /><stop stop-color="#2B2B2B" offset="83%" /><stop stop-color="#292929" offset="84%" /><stop stop-color="#262626" offset="85%" /><stop stop-color="#242424" offset="86%" /><stop stop-color="#212121" offset="87%" /><stop stop-color="#1F1F1F" offset="88%" /><stop stop-color="#1C1C1C" offset="89%" /><stop stop-color="#1A1A1A" offset="90%" /><stop stop-color="#171717" offset="91%" /><stop stop-color="#141414" offset="92%" /><stop stop-color="#121212" offset="93%" /><stop stop-color="#0F0F0F" offset="94%" /><stop stop-color="#0D0D0D" offset="95%" /><stop stop-color="#0A0A0A" offset="96%" /><stop stop-color="#080808" offset="97%" /><stop stop-color="#050505" offset="98%" /><stop stop-color="#030303" offset="99%" /><stop stop-color="#000000" offset="100%" /></linearGradient><g><g><g clip-path="url(#7)"><g><path id="5" transform="matrix(1 0 0 -1 0 807)" d="M0 -103.7461L595 -103.7461L595 -103.7461L595 744.2101L595 744.2101L0 744.2101" stroke="none" fill="url(#6217)" /><path id="7" transform="matrix(1 0 0 -1 0 807)" d="M0 744.2101L595 744.2101L595 744.2101L595 807L595 807L0 807" stroke="none" fill="#000000" fill-rule="evenodd" fill-opacity="0.1490196" /></g></g></g></g></mask><clipPath id="8"><path id="" clip-rule="evenodd" transform="matrix(1 0 0 1 0 0)" d="M-9 -7.875L604.488 -7.875L604.488 -7.875L604.488 808.1406L604.488 808.1406L-9 808.1406z" /></clipPath><clipPath id="9"><path id="" clip-rule="evenodd" transform="matrix(1 0 0 1 0 0)" d="M56.704 750.313L286.421 750.313L286.421 750.313L286.421 597.25L286.421 597.25L56.704 597.25z" /></clipPath></defs><g transform="matrix(1.333333 0 0 1.333333 0 0)"><g clip-path="url(#1)"><g clip-path="url(#2)"><g><g clip-path="url(#3)"><g mask="url(#m1)"><g><g clip-path="url(#5)"></g></g></g></g></g><g><g clip-path="url(#6)"><g mask="url(#m2)"><g><g clip-path="url(#8)"><path id="8" transform="matrix(1 0 0 -1 0 807)" d="M0 -0.141L595.488 -0.141L595.488 807.875L0 807.875z" stroke="none" fill="#5F97B5" fill-rule="nonzero" fill-opacity="0.1490196" /></g></g></g></g></g></g><path id="9" transform="matrix(1 0 0 -1 0 807)" d="M56.835 32.887L538.725 32.887L538.725 46.207L56.835 46.207z" stroke="none" fill="#EBECEC" fill-rule="nonzero" /><path id="1145" transform="matrix(1 0 0 -1 0 807)" d="M56.704 56.688L286.421 56.688L286.421 209.75L56.704 209.75z" stroke="none" fill="#EFEFEF" fill-rule="nonzero" /><g clip-path="url(#9)"><g transform="matrix(0.2397887 0 0 0.2397815 56.70361 596.0799)"><g transform="matrix(1 0 0 1 0 0)"><image x="0" y="0" xlink:href="img_03.png" width="958" height="648" /></g></g></g></g></g></svg>